<svg xmlns="http://www.w3.org/2000/svg" width="64" height="64" viewBox="0 0 64 64">
    <!-- Circle background -->
    <circle cx="32" cy="32" r="32" fill="#ffffff" />
    <!-- Phone icon in black -->
    <path fill="#000000"
        d="M44.2 39.8c-2.5 0-5-0.5-7.2-1.5-0.7-0.3-1.6-0.1-2.1 0.5l-3.4 3.4c-5.1-2.7-9.3-6.9-12-12l3.4-3.4c0.5-0.5 0.7-1.4 0.5-2.1-1-2.2-1.5-4.7-1.5-7.2 0-0.8-0.7-1.5-1.5-1.5h-6.2c-0.8 0-1.5 0.7-1.5 1.5 0 17.1 13.9 31 31 31 0.8 0 1.5-0.7 1.5-1.5v-6.2c0-0.8-0.7-1.5-1.5-1.5z" />
</svg>